<svg xmlns="http://www.w3.org/2000/svg" width="22" height="22" viewBox="0 0 24 24">
  <path fill="#000000" fill-rule="evenodd" d="M0.000 12.000a12 12 0 1 0 24 0a12 12 0 1 0 -24 0ZM5.300 14.400a6.7 4.6 0 1 0 13.4 0a6.7 4.6 0 1 0 -13.4 0ZM3.050 10.400a1.75 1.75 0 1 0 3.5 0a1.75 1.75 0 1 0 -3.5 0ZM17.450 10.400a1.75 1.75 0 1 0 3.5 0a1.75 1.75 0 1 0 -3.5 0ZM15.850 6.100a1.45 1.45 0 1 0 2.9 0a1.45 1.45 0 1 0 -2.9 0ZM12.510 9.669L13.544 5.669L15.641 6.162L15.859 5.238L12.856 4.531L11.590 9.431ZM8.150 13.600a1.15 1.15 0 1 0 2.3 0a1.15 1.15 0 1 0 -2.3 0ZM13.550 13.600a1.15 1.15 0 1 0 2.3 0a1.15 1.15 0 1 0 -2.3 0ZM9.272 16.758L9.595 16.965L9.932 17.151L10.271 17.309L10.613 17.440L10.958 17.543L11.304 17.616L11.652 17.661L12.000 17.675L12.348 17.661L12.696 17.616L13.042 17.543L13.387 17.440L13.729 17.309L14.068 17.151L14.405 16.965L14.728 16.758L14.272 16.042L13.970 16.234L13.682 16.393L13.396 16.526L13.113 16.635L12.833 16.718L12.554 16.778L12.277 16.813L12.000 16.825L11.723 16.813L11.446 16.778L11.167 16.718L10.887 16.635L10.604 16.526L10.318 16.393L10.030 16.234L9.728 16.042Z"/>
</svg>
